<svg width="30" height="30" viewBox="0 0 30 30" fill="none" xmlns="http://www.w3.org/2000/svg">
<path d="M11.25 7.5H18.75C18.75 5.42894 17.0711 3.75 15 3.75C12.9289 3.75 11.25 5.42894 11.25 7.5ZM8.75 7.5C8.75 4.04822 11.5482 1.25 15 1.25C18.4517 1.25 21.25 4.04822 21.25 7.5H25C25.6904 7.5 26.25 8.05965 26.25 8.75V26.25C26.25 26.9404 25.6904 27.5 25 27.5H5C4.30965 27.5 3.75 26.9404 3.75 26.25V8.75C3.75 8.05965 4.30965 7.5 5 7.5H8.75ZM6.25 10V25H23.75V10H6.25ZM11.25 12.5C11.25 14.5711 12.9289 16.25 15 16.25C17.0711 16.25 18.75 14.5711 18.75 12.5H21.25C21.25 15.9517 18.4517 18.75 15 18.75C11.5482 18.75 8.75 15.9517 8.75 12.5H11.25Z" fill="#001D3D"/>
</svg>
